<?xml version="1.0" encoding="UTF-8"?>
<!DOCTYPE svg PUBLIC "-//W3C//DTD SVG 1.1//EN" "http://www.w3.org/Graphics/SVG/1.1/DTD/svg11.dtd">
<svg xmlns="http://www.w3.org/2000/svg" version="1.1" width="300px" height="38px" style="shape-rendering:geometricPrecision; text-rendering:geometricPrecision; image-rendering:optimizeQuality; fill-rule:evenodd; clip-rule:evenodd" xmlns:xlink="http://www.w3.org/1999/xlink">
<g><path style="opacity:0.954" fill="#cae090" d="M 200.5,9.5 C 185.945,11.9217 171.278,13.5884 156.5,14.5C 157.833,13.8333 159.167,13.1667 160.5,12.5C 173.031,11.4971 185.531,10.1638 198,8.5C 199.07,8.52804 199.903,8.86137 200.5,9.5 Z"/></g>
<g><path style="opacity:1" fill="#c3db6b" d="M 200.5,9.5 C 200.5,10.5 200.5,11.5 200.5,12.5C 196.846,12.9422 193.179,13.2756 189.5,13.5C 189.723,17.1621 190.723,20.4954 192.5,23.5C 192.5,23.8333 192.5,24.1667 192.5,24.5C 192.5,26.1667 192.5,27.8333 192.5,29.5C 190.396,29.7989 188.396,29.4656 186.5,28.5C 184.886,23.9801 184.22,19.3134 184.5,14.5C 173.789,15.3431 164.456,15.3431 156.5,14.5C 171.278,13.5884 185.945,11.9217 200.5,9.5 Z"/></g>
<g><path style="opacity:0.2" fill="#f7df89" d="M 275.5,12.5 C 278.304,11.3622 281.304,11.1955 284.5,12C 285.8,13.5788 285.466,14.7455 283.5,15.5C 283.5,14.5 283.5,13.5 283.5,12.5C 280.833,12.5 278.167,12.5 275.5,12.5 Z"/></g>
<g><path style="opacity:1" fill="#d1d85b" d="M 211.5,18.5 C 210.5,18.5 209.5,18.5 208.5,18.5C 208.5,21.8333 208.5,25.1667 208.5,28.5C 206.5,28.5 204.5,28.5 202.5,28.5C 202.353,23.7858 202.686,19.1191 203.5,14.5C 204.695,14.3225 205.862,13.9891 207,13.5C 209.755,14.7572 211.255,16.4239 211.5,18.5 Z"/></g>
<g><path style="opacity:0.476" fill="#a3edd3" d="M 100.5,16.5 C 101.349,18.8876 102.349,21.2209 103.5,23.5C 105.716,30.0819 103.382,32.2486 96.5,30C 94.9125,25.3141 93.9125,20.4808 93.5,15.5C 88.1777,16.0293 82.8443,16.5293 77.5,17C 79.6348,18.5557 79.9681,20.3891 78.5,22.5C 77.1667,22.5 75.8333,22.5 74.5,22.5C 75.0906,21.8485 75.7573,21.1818 76.5,20.5C 72.2172,19.5078 67.8839,19.1744 63.5,19.5C 57.6903,18.4618 56.6903,18.4618 60.5,19.5C 59.4324,20.4345 58.099,20.7678 56.5,20.5C 55.596,19.791 55.2627,18.791 55.5,17.5C 58.1667,17.5 60.8333,17.5 63.5,17.5C 64.5,17.5 65.5,17.5 66.5,17.5C 68.1667,18.8333 69.8333,18.8333 71.5,17.5C 73.5529,17.5979 75.2196,16.9313 76.5,15.5C 82.8154,14.8905 89.1487,14.5572 95.5,14.5C 96.065,19.1493 96.565,23.816 97,28.5C 98.6995,29.4061 100.533,29.7394 102.5,29.5C 100.937,25.3387 100.271,21.0054 100.5,16.5 Z"/></g>
<g><path style="opacity:1" fill="#86e9bb" d="M 111.5,9.5 C 111.833,9.5 112.167,9.5 112.5,9.5C 112.5,10.5 112.5,11.5 112.5,12.5C 108.519,13.0209 104.519,13.3542 100.5,13.5C 100.5,14.5 100.5,15.5 100.5,16.5C 100.271,21.0054 100.937,25.3387 102.5,29.5C 100.533,29.7394 98.6995,29.4061 97,28.5C 96.565,23.816 96.065,19.1493 95.5,14.5C 89.1487,14.5572 82.8154,14.8905 76.5,15.5C 75.7611,15.631 75.0944,15.4643 74.5,15C 75.6226,13.9563 76.9559,13.2896 78.5,13C 89.5578,12.2108 100.558,11.0441 111.5,9.5 Z"/></g>
<g><path style="opacity:0.933" fill="#d8e29a" d="M 200.5,9.5 C 202.176,10.1834 202.843,11.5168 202.5,13.5C 198.865,14.1143 195.198,14.4476 191.5,14.5C 191.704,17.5176 192.037,20.5176 192.5,23.5C 190.723,20.4954 189.723,17.1621 189.5,13.5C 193.179,13.2756 196.846,12.9422 200.5,12.5C 200.5,11.5 200.5,10.5 200.5,9.5 Z"/></g>
<g><path style="opacity:1" fill="#ddd965" d="M 236.5,13.5 C 231.794,12.8811 229.127,14.8811 228.5,19.5C 230.604,19.2011 232.604,19.5344 234.5,20.5C 235.127,21.4168 235.461,22.4168 235.5,23.5C 234.21,22.9423 233.377,21.9423 233,20.5C 228.392,25.4442 223.225,26.7775 217.5,24.5C 215.833,22.1667 213.833,20.1667 211.5,18.5C 211.255,16.4239 209.755,14.7572 207,13.5C 205.862,13.9891 204.695,14.3225 203.5,14.5C 205.858,11.7636 208.858,10.9302 212.5,12C 215.717,14.7256 219.05,17.2256 222.5,19.5C 225.575,17.9338 228.242,15.7671 230.5,13C 232.712,12.2109 234.712,12.3775 236.5,13.5 Z"/></g>
<g><path style="opacity:1" fill="#6af0de" d="M 63.5,17.5 C 60.8333,17.5 58.1667,17.5 55.5,17.5C 55.2627,18.791 55.596,19.791 56.5,20.5C 57.6085,21.29 58.9419,21.79 60.5,22C 58.5188,22.6054 58.1854,23.6054 59.5,25C 61.4727,25.4955 63.4727,25.6621 65.5,25.5C 65.8807,26.9311 66.8807,27.7645 68.5,28C 63.4724,28.5883 58.4724,28.4216 53.5,27.5C 51.5856,24.8934 49.2523,22.8934 46.5,21.5C 47.5,21.5 48.5,21.5 49.5,21.5C 49.3309,16.9593 49.9975,16.626 51.5,20.5C 51.8333,20 52.1667,19.5 52.5,19C 51.8524,17.5603 51.5191,16.0603 51.5,14.5C 53.8568,14.3367 56.1902,14.5034 58.5,15C 60.6526,15.0995 62.3192,15.9328 63.5,17.5 Z"/></g>
<g><path style="opacity:1" fill="#8aeed7" d="M 111.5,9.5 C 100.558,11.0441 89.5578,12.2108 78.5,13C 76.9559,13.2896 75.6226,13.9563 74.5,15C 75.0944,15.4643 75.7611,15.631 76.5,15.5C 75.2196,16.9313 73.5529,17.5979 71.5,17.5C 69.8333,17.5 68.1667,17.5 66.5,17.5C 65.5,17.5 64.5,17.5 63.5,17.5C 62.3192,15.9328 60.6526,15.0995 58.5,15C 56.1902,14.5034 53.8568,14.3367 51.5,14.5C 51.5191,16.0603 51.8524,17.5603 52.5,19C 52.1667,19.5 51.8333,20 51.5,20.5C 49.9975,16.626 49.3309,16.9593 49.5,21.5C 48.5,21.5 47.5,21.5 46.5,21.5C 47.7221,20.063 47.7221,18.563 46.5,17C 46.7591,15.7387 47.4258,14.7387 48.5,14C 68.7347,12.8878 88.9014,11.0544 109,8.5C 110.07,8.52804 110.903,8.86137 111.5,9.5 Z"/></g>
<g><path style="opacity:0.553" fill="#b8e9c6" d="M 112.5,9.5 C 115.081,11.0038 117.914,12.0038 121,12.5C 122.158,16.7754 122.992,21.1087 123.5,25.5C 121.869,21.4223 120.536,17.089 119.5,12.5C 117.856,12.2865 116.356,12.6198 115,13.5C 114.75,18.5138 115.084,23.5138 116,28.5C 120.737,29.4692 125.57,29.8025 130.5,29.5C 125.36,30.4881 120.026,30.8214 114.5,30.5C 114.02,24.809 113.354,19.1423 112.5,13.5C 109.214,14.2071 105.881,14.5405 102.5,14.5C 102.704,17.5176 103.037,20.5176 103.5,23.5C 102.349,21.2209 101.349,18.8876 100.5,16.5C 100.5,15.5 100.5,14.5 100.5,13.5C 104.519,13.3542 108.519,13.0209 112.5,12.5C 112.5,11.5 112.5,10.5 112.5,9.5 Z"/></g>
<g><path style="opacity:0.993" fill="#c0e39f" d="M 160.5,12.5 C 159.167,13.1667 157.833,13.8333 156.5,14.5C 164.456,15.3431 173.789,15.3431 184.5,14.5C 184.22,19.3134 184.886,23.9801 186.5,28.5C 188.396,29.4656 190.396,29.7989 192.5,29.5C 192.5,27.8333 192.5,26.1667 192.5,24.5C 193.914,26.0439 194.247,27.7106 193.5,29.5C 190.833,30.8333 188.167,30.8333 185.5,29.5C 183.857,24.9743 182.857,20.3076 182.5,15.5C 177.188,16.1095 171.854,16.6095 166.5,17C 169.587,20.8822 168.587,22.7155 163.5,22.5C 164.398,21.8423 165.398,21.1757 166.5,20.5C 161.88,19.5067 157.214,19.1734 152.5,19.5C 149.366,18.1776 147.699,18.1776 147.5,19.5C 146.791,20.404 145.791,20.7373 144.5,20.5C 144.5,18.8333 144.5,17.1667 144.5,15.5C 142.5,15.5 140.5,15.5 138.5,15.5C 138.519,17.0603 138.852,18.5603 139.5,20C 138.728,21.221 137.728,22.221 136.5,23C 140.058,25.0593 143.724,26.8926 147.5,28.5C 147.5,28.8333 147.5,29.1667 147.5,29.5C 144.157,28.941 141.157,27.6077 138.5,25.5C 137.85,27.1836 136.85,28.5169 135.5,29.5C 135.5,28.1667 135.5,26.8333 135.5,25.5C 135.5,24.8333 135.167,24.5 134.5,24.5C 134.137,22.0885 135.137,20.5885 137.5,20C 135.078,17.888 135.078,15.888 137.5,14C 145.185,13.6472 152.852,13.1472 160.5,12.5 Z"/></g>
<g><path style="opacity:1" fill="#e6d54f" d="M 236.5,13.5 C 238.19,13.8564 239.19,14.8564 239.5,16.5C 240.291,19.4168 240.291,22.2501 239.5,25C 241.107,24.9813 242.774,24.8146 244.5,24.5C 244.5,25.5 244.5,26.5 244.5,27.5C 240.094,29.382 237.094,28.0487 235.5,23.5C 235.461,22.4168 235.127,21.4168 234.5,20.5C 232.604,19.5344 230.604,19.2011 228.5,19.5C 229.127,14.8811 231.794,12.8811 236.5,13.5 Z"/></g>
<g><path style="opacity:1" fill="#f6d038" d="M 275.5,12.5 C 278.167,12.5 280.833,12.5 283.5,12.5C 283.5,13.5 283.5,14.5 283.5,15.5C 281.393,16.4682 279.059,16.8016 276.5,16.5C 274.585,16.2155 272.919,16.5489 271.5,17.5C 269.833,17.5 268.167,17.5 266.5,17.5C 262.833,17.5 259.167,17.5 255.5,17.5C 255.5,18.5 255.5,19.5 255.5,20.5C 256.791,20.7373 257.791,20.404 258.5,19.5C 259.833,19.5 261.167,19.5 262.5,19.5C 263.167,19.5 263.833,19.5 264.5,19.5C 260.773,20.9829 257.106,21.6496 253.5,21.5C 251.847,21.6596 250.514,22.3263 249.5,23.5C 249.261,20.8085 249.261,17.9752 249.5,15C 255.016,14.8267 260.349,14.3267 265.5,13.5C 268.625,12.5206 271.958,12.1872 275.5,12.5 Z"/></g>
<g><path style="opacity:1" fill="#9ae6a8" d="M 123.5,25.5 C 127.179,25.2756 130.846,24.9422 134.5,24.5C 135.167,24.5 135.5,24.8333 135.5,25.5C 135.5,26.8333 135.5,28.1667 135.5,29.5C 133.833,29.5 132.167,29.5 130.5,29.5C 125.57,29.8025 120.737,29.4692 116,28.5C 115.084,23.5138 114.75,18.5138 115,13.5C 116.356,12.6198 117.856,12.2865 119.5,12.5C 120.536,17.089 121.869,21.4223 123.5,25.5 Z"/></g>
<g><path style="opacity:0.208" fill="#f6e08b" d="M 266.5,17.5 C 266.5,17.8333 266.5,18.1667 266.5,18.5C 265.833,18.5 265.5,18.8333 265.5,19.5C 265.167,19.5 264.833,19.5 264.5,19.5C 263.833,19.5 263.167,19.5 262.5,19.5C 259.504,18.1793 258.17,18.1793 258.5,19.5C 257.791,20.404 256.791,20.7373 255.5,20.5C 255.5,19.5 255.5,18.5 255.5,17.5C 259.167,17.5 262.833,17.5 266.5,17.5 Z"/></g>
<g><path style="opacity:0.125" fill="#f6e19a" d="M 276.5,16.5 C 278.432,17.9764 278.765,19.6431 277.5,21.5C 277.5,20.5 277.5,19.5 277.5,18.5C 275.5,18.5 273.5,18.5 271.5,18.5C 271.5,18.1667 271.5,17.8333 271.5,17.5C 272.919,16.5489 274.585,16.2155 276.5,16.5 Z"/></g>
<g><path style="opacity:1" fill="#aae18b" d="M 147.5,19.5 C 149.167,19.5 150.833,19.5 152.5,19.5C 157.214,19.1734 161.88,19.5067 166.5,20.5C 165.398,21.1757 164.398,21.8423 163.5,22.5C 162.833,22.5 162.167,22.5 161.5,22.5C 156.167,22.5 150.833,22.5 145.5,22.5C 145.5,23.5 145.5,24.5 145.5,25.5C 152.565,25.9019 159.565,26.7352 166.5,28C 160.175,28.4995 153.842,28.6662 147.5,28.5C 143.724,26.8926 140.058,25.0593 136.5,23C 137.728,22.221 138.728,21.221 139.5,20C 138.852,18.5603 138.519,17.0603 138.5,15.5C 140.5,15.5 142.5,15.5 144.5,15.5C 144.5,17.1667 144.5,18.8333 144.5,20.5C 145.791,20.7373 146.791,20.404 147.5,19.5 Z"/></g>
<g><path style="opacity:1" fill="#7feed8" d="M 60.5,19.5 C 61.5,19.5 62.5,19.5 63.5,19.5C 67.8839,19.1744 72.2172,19.5078 76.5,20.5C 75.7573,21.1818 75.0906,21.8485 74.5,22.5C 71.2129,23.1614 67.8796,23.6614 64.5,24C 65.056,24.3826 65.3893,24.8826 65.5,25.5C 63.4727,25.6621 61.4727,25.4955 59.5,25C 58.1854,23.6054 58.5188,22.6054 60.5,22C 58.9419,21.79 57.6085,21.29 56.5,20.5C 58.099,20.7678 59.4324,20.4345 60.5,19.5 Z"/></g>
<g><path style="opacity:1" fill="#f8ce27" d="M 264.5,19.5 C 264.833,19.5 265.167,19.5 265.5,19.5C 269.226,19.1774 272.893,19.5108 276.5,20.5C 269.954,22.2061 263.287,22.8728 256.5,22.5C 256.33,23.8221 256.663,24.9887 257.5,26C 256.167,26.6667 254.833,26.6667 253.5,26C 253.833,25.6667 254.167,25.3333 254.5,25C 253.5,24.6667 252.5,24.3333 251.5,24C 252.381,23.2917 253.047,22.4584 253.5,21.5C 257.106,21.6496 260.773,20.9829 264.5,19.5 Z"/></g>
<g><path style="opacity:1" fill="#edd969" d="M 265.5,13.5 C 260.349,14.3267 255.016,14.8267 249.5,15C 249.261,17.9752 249.261,20.8085 249.5,23.5C 250.338,23.8417 250.672,24.5084 250.5,25.5C 248.856,25.7135 247.356,25.3802 246,24.5C 245.768,25.7375 245.268,26.7375 244.5,27.5C 244.5,26.5 244.5,25.5 244.5,24.5C 242.774,24.8146 241.107,24.9813 239.5,25C 240.291,22.2501 240.291,19.4168 239.5,16.5C 241.708,17.8936 243.208,19.8936 244,22.5C 245.074,21.3816 246.24,20.3816 247.5,19.5C 245.88,17.2606 246.213,15.4272 248.5,14C 254.157,13.5006 259.824,13.3339 265.5,13.5 Z"/></g>
<g><path style="opacity:0.294" fill="#dbe190" d="M 203.5,14.5 C 202.686,19.1191 202.353,23.7858 202.5,28.5C 204.5,28.5 206.5,28.5 208.5,28.5C 206.105,29.8143 203.605,29.8143 201,28.5C 199.914,23.3679 200.748,18.7013 203.5,14.5 Z"/></g>
<g><path style="opacity:0.075" fill="#f8ebbf" d="M 263.5,23.5 C 264.167,24.1667 264.833,24.8333 265.5,25.5C 263.692,25.5086 262.025,25.0086 260.5,24C 261.448,23.5172 262.448,23.3505 263.5,23.5 Z"/></g>
<g><path style="opacity:0.153" fill="#e4e69c" d="M 211.5,18.5 C 213.833,20.1667 215.833,22.1667 217.5,24.5C 214.925,23.2716 212.592,21.6049 210.5,19.5C 209.833,22.6417 209.166,25.6417 208.5,28.5C 208.5,25.1667 208.5,21.8333 208.5,18.5C 209.5,18.5 210.5,18.5 211.5,18.5 Z"/></g>
<g><path style="opacity:0.991" fill="#8cf3ef" d="M 26.5,11.5 C 25.645,12.5307 24.9783,13.6974 24.5,15C 25.7643,19.7522 26.431,24.5855 26.5,29.5C 28.4672,29.7394 30.3005,29.4061 32,28.5C 33.1947,22.4202 32.3614,16.7535 29.5,11.5C 30.4959,11.4142 31.3292,11.7476 32,12.5C 32.9961,16.4737 33.8294,20.4737 34.5,24.5C 38.1609,25.452 41.8276,25.2853 45.5,24C 44.434,22.841 44.7673,22.0076 46.5,21.5C 49.2523,22.8934 51.5856,24.8934 53.5,27.5C 51.9064,27.0805 50.4064,26.4138 49,25.5C 48.5,25.6667 48,25.8333 47.5,26C 48.8333,27 48.8333,28 47.5,29C 40.2149,30.4137 32.8815,30.747 25.5,30C 25.1419,25.4868 24.4752,20.8201 23.5,16C 23.0503,13.3743 24.0503,11.8743 26.5,11.5 Z"/></g>
<g><path style="opacity:1" fill="#59f4f6" d="M 26.5,11.5 C 27.5,11.5 28.5,11.5 29.5,11.5C 32.3614,16.7535 33.1947,22.4202 32,28.5C 30.3005,29.4061 28.4672,29.7394 26.5,29.5C 26.431,24.5855 25.7643,19.7522 24.5,15C 24.9783,13.6974 25.645,12.5307 26.5,11.5 Z"/></g>
<g><path style="opacity:0.992" fill="#90ecd3" d="M 53.5,27.5 C 58.4724,28.4216 63.4724,28.5883 68.5,28C 66.8807,27.7645 65.8807,26.9311 65.5,25.5C 69.8333,25.5 74.1667,25.5 78.5,25.5C 78.5,24.5 78.5,23.5 78.5,22.5C 81.8446,21.0008 85.0112,21.3342 88,23.5C 88.4416,26.7395 86.9416,28.5729 83.5,29C 78.8792,29.9139 74.2125,30.4139 69.5,30.5C 63.8009,30.7588 58.4676,29.7588 53.5,27.5 Z"/></g>
<g><path style="opacity:0.983" fill="#c2e297" d="M 147.5,29.5 C 147.5,29.1667 147.5,28.8333 147.5,28.5C 153.842,28.6662 160.175,28.4995 166.5,28C 159.565,26.7352 152.565,25.9019 145.5,25.5C 145.5,24.5 145.5,23.5 145.5,22.5C 150.833,22.5 156.167,22.5 161.5,22.5C 159.031,23.3171 156.365,23.8171 153.5,24C 155.8,25.1091 158.3,25.6091 161,25.5C 163.167,25.1667 165.333,24.8333 167.5,24.5C 171.086,20.4702 174.419,20.6368 177.5,25C 177.241,26.2613 176.574,27.2613 175.5,28C 166.273,30.5767 156.94,31.0767 147.5,29.5 Z"/></g>
<g><path style="opacity:1" fill="#f5d454" d="M 265.5,19.5 C 265.5,18.8333 265.833,18.5 266.5,18.5C 268.167,18.5 269.833,18.5 271.5,18.5C 273.5,18.5 275.5,18.5 277.5,18.5C 277.5,19.5 277.5,20.5 277.5,21.5C 273.1,23.1042 268.434,23.7709 263.5,23.5C 262.448,23.3505 261.448,23.5172 260.5,24C 262.025,25.0086 263.692,25.5086 265.5,25.5C 268.833,25.5 272.167,25.5 275.5,25.5C 270.174,26.0485 264.841,26.8818 259.5,28C 267.159,28.4997 274.826,28.6664 282.5,28.5C 273.69,30.9806 264.69,31.1473 255.5,29C 253.416,28.3028 251.749,27.1361 250.5,25.5C 250.672,24.5084 250.338,23.8417 249.5,23.5C 250.514,22.3263 251.847,21.6596 253.5,21.5C 253.047,22.4584 252.381,23.2917 251.5,24C 252.5,24.3333 253.5,24.6667 254.5,25C 254.167,25.3333 253.833,25.6667 253.5,26C 254.833,26.6667 256.167,26.6667 257.5,26C 256.663,24.9887 256.33,23.8221 256.5,22.5C 263.287,22.8728 269.954,22.2061 276.5,20.5C 272.893,19.5108 269.226,19.1774 265.5,19.5 Z"/></g>
<g><path style="opacity:1" fill="#fccd24" d="M 282.5,28.5 C 274.826,28.6664 267.159,28.4997 259.5,28C 264.841,26.8818 270.174,26.0485 275.5,25.5C 276.167,25.5 276.833,25.5 277.5,25.5C 279.916,24.0318 282.583,23.3651 285.5,23.5C 285.69,25.9589 284.69,27.6255 282.5,28.5 Z"/></g>
<g><path style="opacity:0.306" fill="#f9dd7c" d="M 282.5,28.5 C 284.69,27.6255 285.69,25.9589 285.5,23.5C 282.583,23.3651 279.916,24.0318 277.5,25.5C 280.65,20.3255 284.317,20.1588 288.5,25C 287.257,27.4549 285.257,28.6216 282.5,28.5 Z"/></g>
</svg>
