<svg width="56px" height="56px" viewBox="-102.4 -102.4 1228.80 1228.80" class="icon" version="1.1" xmlns="http://www.w3.org/2000/svg" fill="#5e5a5a" stroke="#5e5a5a">
  <g id="SVGRepo_bgCarrier" stroke-width="0">
    <rect x="-102.4" y="-102.4" width="1228.80" height="1228.80" rx="614.4" fill="#99bbde" strokewidth="0" />
  </g>
  <g id="SVGRepo_tracerCarrier" stroke-linecap="round" stroke-linejoin="round" />
  <g id="SVGRepo_iconCarrier">
    <path d="M118.9 388.7h328.6c14.3 0 25.9 11.6 25.9 25.9v208.7c0 14.3-11.6 25.9-25.9 25.9H275.6l-52.1 50.1-54.1-50.1h-50.5c-14.3 0-25.9-11.6-25.9-25.9V414.6c0-14.3 11.6-25.9 25.9-25.9z" fill="#abbff7" />
    <path d="M223.5 699.2l-54.1-50.1h-50.5c-14.3 0-25.9-11.6-25.9-25.9V414.6c0-14.3 11.6-25.9 25.9-25.9h328.7c14.3 0 25.9 11.6 25.9 25.9v208.7c0 14.3-11.6 25.9-25.9 25.9H275.7l-52.2 50z m-91.7-88.9h52.8l38.4 35.5 37-35.5h174.6V427.5H131.8v182.8z" fill="#637498" />
    <path d="M321.6 267.9h508.9c14.3 0 25.9 11.6 25.9 25.9v399c0 14.3-11.6 25.9-25.9 25.9h-177L584 785.5l-72.2-66.8H321.5c-14.3 0-25.9-11.6-25.9-25.9v-399c0.1-14.3 11.7-25.9 26-25.9z" fill="#FFFFFF" />
    <path d="M584.4 821.1l-82.6-76.5H321.6c-28.5 0-51.8-23.2-51.8-51.8v-399c0-28.5 23.2-51.8 51.8-51.8h508.9c28.5 0 51.8 23.2 51.8 51.8v399c0 28.5-23.2 51.8-51.8 51.8H663.9l-79.5 76.5zM321.6 293.8v399H522l61.7 57.1 59.4-57.1h187.4v-399H321.6z" fill="#637498" />
    <path d="M642.2 509.5H582l-0.2 10.9c-0.3 14.1-11.8 25.4-25.9 25.4h-0.1c-13.8 0-25-11.2-25-25v-0.5l0.7-37.1c0.3-13.8 11.3-24.9 24.9-25.4 0.8-0.1 1.6-0.1 2.4-0.1h57.3v-47.4H520c-14.3 0-25.9-11.6-25.9-25.9s11.6-25.9 25.9-25.9H642c14.3 0 25.9 11.6 25.9 25.9v99.2c0 14.2-11.5 25.7-25.7 25.9z m-112.3 96.1V603c0-14.3 11.6-25.9 25.9-25.9s25.9 11.6 25.9 25.9v2.6c0 14.3-11.6 25.9-25.9 25.9s-25.9-11.6-25.9-25.9z" fill="#637498" />
  </g>
</svg>